<svg xmlns="http://www.w3.org/2000/svg" width="40" height="40" viewBox="0 0 40 40" fill="#FFFFFF">
<g transform="translate(0 0)">
<path d="M4.535,0H35.441a4.391,4.391,0,0,1,3.834,2.131,5.169,5.169,0,0,1,.712,2.7V35.177A4.766,4.766,0,0,1,38,39.214,4.273,4.273,0,0,1,35.441,40H4.535A4.4,4.4,0,0,1,.7,37.863a5.189,5.189,0,0,1-.709-2.686V4.828A4.758,4.758,0,0,1,1.981.794,4.27,4.27,0,0,1,4.535,0ZM8.513,10.769a2.881,2.881,0,0,0,2.9,2.869,2.8,2.8,0,0,0,2.244-1.108,2.9,2.9,0,0,0,.6-1.789,2.851,2.851,0,0,0-1.28-2.4,3.077,3.077,0,0,0-1.59-.454,2.881,2.881,0,0,0-2.867,2.869Zm.4,5.057V31.769H13.88V15.826Zm12.866,2.188h-.029a.026.026,0,0,1-.029-.029V15.826H16.976V31.769h4.952V24.352a8.471,8.471,0,0,1,.313-2.843,2.483,2.483,0,0,1,2.583-1.732h.19a2.122,2.122,0,0,1,2.1,1.393,3.538,3.538,0,0,1,.261,1.022,16.961,16.961,0,0,1,.086,2.347v7.219h4.968V22.873q0-4.061-1.418-5.738Q29.62,15.4,26.44,15.4a5.54,5.54,0,0,0-3.55,1.249,5.475,5.475,0,0,0-.766.8C21.983,17.654,21.871,17.845,21.775,18.014Z" transform="translate(0.011 0.002)"/></g></svg>