<svg xmlns="http://www.w3.org/2000/svg" width="40" height="40" viewBox="0 0 40 40"><g style="isolation:isolate"><g transform="translate(0 0)"><path d="M39.27,2.128A4.387,4.387,0,0,0,35.441,0H4.535a4.271,4.271,0,0,0-2.554.8A4.756,4.756,0,0,0-.008,4.827V35.166a5.186,5.186,0,0,0,.709,2.7A4.405,4.405,0,0,0,4.535,40H35.441A4.274,4.274,0,0,0,38,39.215a4.764,4.764,0,0,0,1.989-4.036V4.827A5.166,5.166,0,0,0,39.27,2.128ZM23.711,32.757c-.633.128-.865-.276-.865-.615,0-.425.021-1.807.021-3.527A3.047,3.047,0,0,0,22,26.236c2.846-.318,5.818-1.4,5.818-6.33a4.92,4.92,0,0,0-1.3-3.441,4.635,4.635,0,0,0-.125-3.389s-1.076-.342-3.5,1.317a12.131,12.131,0,0,0-6.365,0c-2.424-1.669-3.5-1.327-3.5-1.327a4.6,4.6,0,0,0-.128,3.389,5.027,5.027,0,0,0-1.3,3.441c0,4.927,2.971,6.033,5.8,6.33a2.733,2.733,0,0,0-.8,1.721,2.7,2.7,0,0,1-3.712-1.064,2.638,2.638,0,0,0-1.96-1.3s-1.243,0-.083.782a3.277,3.277,0,0,1,1.413,1.869s.738,2.294,4.28,1.528c0,1.064.021,2.086.021,2.38,0,.339-.232.743-.865.615a12.723,12.723,0,1,1,8.033,0Z" transform="translate(0.011 0.002)"/></g></g></svg>